<svg width="14" height="14" viewBox="0 0 14 14" fill="none" xmlns="http://www.w3.org/2000/svg">
<path d="M4.75 4.75V2.88346C4.75 2.13673 4.75 1.76308 4.89532 1.47786C5.02316 1.22698 5.22698 1.02316 5.47786 0.895325C5.76308 0.75 6.13673 0.75 6.88346 0.75H10.6168C11.3635 0.75 11.7367 0.75 12.0219 0.895325C12.2728 1.02316 12.477 1.22698 12.6048 1.47786C12.7501 1.76308 12.7501 2.13645 12.7501 2.88319V6.61654C12.7501 7.36327 12.7501 7.73664 12.6048 8.02186C12.477 8.27274 12.2726 8.47699 12.0217 8.60482C11.7368 8.75 11.364 8.75 10.6187 8.75H8.75M4.75 4.75H2.88346C2.13673 4.75 1.76308 4.75 1.47786 4.89532C1.22698 5.02316 1.02316 5.22698 0.895325 5.47786C0.75 5.76308 0.75 6.13673 0.75 6.88346V10.6168C0.75 11.3635 0.75 11.7367 0.895325 12.0219C1.02316 12.2728 1.22698 12.477 1.47786 12.6048C1.7628 12.75 2.136 12.75 2.88127 12.75H6.61903C7.36431 12.75 7.73698 12.75 8.02192 12.6048C8.2728 12.477 8.47699 12.2726 8.60482 12.0217C8.75 11.7368 8.75 11.364 8.75 10.6187V8.75M4.75 4.75H6.6168C7.36354 4.75 7.73671 4.75 8.02192 4.89532C8.2728 5.02316 8.47699 5.22698 8.60482 5.47786C8.75 5.7628 8.75 6.136 8.75 6.8813L8.75 8.75" stroke="#055CBE" stroke-width="1.5" stroke-linecap="round" stroke-linejoin="round"/>
</svg>
