<svg width="15" height="17" viewBox="0 0 15 17" fill="none" xmlns="http://www.w3.org/2000/svg">
<path fill-rule="evenodd" clip-rule="evenodd" d="M14.4059 2.70247C14.7301 2.70247 15 2.97164 15 3.31413V3.6308C15 3.96496 14.7301 4.24246 14.4059 4.24246H0.594878C0.269883 4.24246 0 3.96496 0 3.6308V3.31413C0 2.97164 0.269883 2.70247 0.594878 2.70247H3.02464C3.51821 2.70247 3.94775 2.35164 4.05879 1.85665L4.18603 1.28832C4.38378 0.514161 5.03458 0 5.77939 0H9.22061C9.95732 0 10.6154 0.514162 10.8059 1.24749L10.942 1.85581C11.0522 2.35164 11.4818 2.70247 11.9762 2.70247H14.4059ZM13.1715 14.2784C13.4252 11.9142 13.8693 6.2976 13.8693 6.24094C13.8855 6.06927 13.8296 5.90677 13.7186 5.77594C13.5994 5.65344 13.4487 5.58094 13.2826 5.58094H1.72377C1.55681 5.58094 1.39796 5.65344 1.28774 5.77594C1.1759 5.90677 1.12079 6.06927 1.12889 6.24094C1.13038 6.25135 1.14632 6.44919 1.17296 6.77995C1.29132 8.24931 1.62097 12.3418 1.83399 14.2784C1.98474 15.705 2.92082 16.6017 4.27672 16.6342C5.32302 16.6583 6.40093 16.6667 7.50316 16.6667C8.54136 16.6667 9.59577 16.6583 10.6745 16.6342C12.0774 16.61 13.0127 15.7292 13.1715 14.2784Z" fill="white"/>
</svg>
