<svg width="24" height="24" viewBox="0 0 24 24" fill="none" xmlns="http://www.w3.org/2000/svg">
<path d="M20.3102 4.67C19.284 3.77243 17.9509 3.30572 16.589 3.3672C15.227 3.42869 13.9414 4.01362 13.0002 5L12.0002 6L11.0002 5C10.0569 4.02944 8.77736 3.45739 7.42501 3.40159C6.07267 3.34578 4.75038 3.81046 3.73024 4.7C2.87207 5.48854 2.30612 6.54438 2.12454 7.6956C1.94297 8.84681 2.15645 10.0256 2.73024 11.04C2.96267 11.4554 3.24843 11.8387 3.58024 12.18L12.0002 20.64L20.4902 12.15C20.8228 11.8056 21.1086 11.4189 21.3402 11C21.9079 9.98343 22.1151 8.80475 21.9281 7.65555C21.7411 6.50634 21.1709 5.45415 20.3102 4.67Z" stroke="#055CBE" stroke-width="1.5" stroke-linecap="round" stroke-linejoin="round"/>
<path d="M20.31 12.3201H15.72L14.23 14.4901L12.9 12.3201H10.62L8.90002 8.68005L7.23002 12.3201H3.77002" stroke="#055CBE" stroke-width="1.5" stroke-linecap="round" stroke-linejoin="round"/>
</svg>
