<svg width="24" height="24" viewBox="0 0 24 24" fill="none" xmlns="http://www.w3.org/2000/svg">
<path d="M17.88 13.37C18.8023 13.37 19.55 12.6223 19.55 11.7C19.55 10.7777 18.8023 10.03 17.88 10.03C16.9576 10.03 16.21 10.7777 16.21 11.7C16.21 12.6223 16.9576 13.37 17.88 13.37Z" stroke="black" stroke-width="1.5" stroke-linecap="round" stroke-linejoin="round"/>
<path d="M8.18018 14.45H10.9402V15.87C10.9415 16.0464 10.9078 16.2212 10.8409 16.3844C10.774 16.5476 10.6754 16.6958 10.5507 16.8205C10.426 16.9452 10.2777 17.0439 10.1145 17.1107C9.95136 17.1776 9.77652 17.2113 9.60018 17.21H9.51018C9.15744 17.21 8.81915 17.0699 8.56972 16.8205C8.3203 16.571 8.18018 16.2328 8.18018 15.88V14.45Z" stroke="black" stroke-width="1.5" stroke-linecap="round" stroke-linejoin="round"/>
<path d="M9.56006 17.21V17.84C9.56006 18.9433 9.99834 20.0014 10.7785 20.7816C11.5586 21.5617 12.6168 22 13.7201 22C14.2664 22 14.8073 21.8924 15.312 21.6833C15.8167 21.4743 16.2753 21.1679 16.6616 20.7816C17.0479 20.3953 17.3543 19.9367 17.5634 19.432C17.7725 18.9272 17.8801 18.3863 17.8801 17.84V13.37" stroke="black" stroke-width="1.5" stroke-linecap="round" stroke-linejoin="round"/>
<path d="M7 3.2V2" stroke="black" stroke-width="2" stroke-linecap="round" stroke-linejoin="round"/>
<path d="M6.1402 2.59998C5.69198 2.59998 5.26212 2.77803 4.94519 3.09497C4.62825 3.4119 4.4502 3.84176 4.4502 4.28998V8.45998C4.44913 9.72044 4.92416 10.9348 5.7802 11.86L8.1802 14.45" stroke="black" stroke-width="1.5" stroke-linecap="round" stroke-linejoin="round"/>
<path d="M7.00014 2.59998H6.14014" stroke="black" stroke-width="2" stroke-linecap="round" stroke-linejoin="round"/>
<path d="M12.1099 3.2V2" stroke="black" stroke-width="2" stroke-linecap="round" stroke-linejoin="round"/>
<path d="M13 2.59998C13.4482 2.59998 13.878 2.77803 14.195 3.09497C14.5119 3.4119 14.69 3.84176 14.69 4.28998V8.45998C14.691 9.72044 14.216 10.9348 13.36 11.86L10.96 14.45" stroke="black" stroke-width="1.5" stroke-linecap="round" stroke-linejoin="round"/>
<path d="M12.1099 2.59998H12.9799" stroke="black" stroke-width="2" stroke-linecap="round" stroke-linejoin="round"/>
</svg>
