<svg width="24" height="24" viewBox="0 0 24 24" fill="none" xmlns="http://www.w3.org/2000/svg">
<path d="M12 22V18.78" stroke="#3BCC50" stroke-width="1.5" stroke-linecap="round" stroke-linejoin="round"/>
<path d="M9.70996 22H14.29" stroke="#3BCC50" stroke-width="1.5" stroke-linecap="round" stroke-linejoin="round"/>
<path d="M3.33984 17L6.12984 15.39" stroke="#3BCC50" stroke-width="1.5" stroke-linecap="round" stroke-linejoin="round"/>
<path d="M2.02002 14.71L4.66002 19.29" stroke="#3BCC50" stroke-width="1.5" stroke-linecap="round" stroke-linejoin="round"/>
<path d="M3.33984 7L6.07984 8.58" stroke="#3BCC50" stroke-width="1.5" stroke-linecap="round" stroke-linejoin="round"/>
<path d="M4.66002 4.70996L2.02002 9.28996" stroke="#3BCC50" stroke-width="1.5" stroke-linecap="round" stroke-linejoin="round"/>
<path d="M12 2V5.22" stroke="#3BCC50" stroke-width="1.5" stroke-linecap="round" stroke-linejoin="round"/>
<path d="M14.29 2H9.70996" stroke="#3BCC50" stroke-width="1.5" stroke-linecap="round" stroke-linejoin="round"/>
<path d="M20.6601 7L17.8701 8.61" stroke="#3BCC50" stroke-width="1.5" stroke-linecap="round" stroke-linejoin="round"/>
<path d="M21.9798 9.28996L19.3398 4.70996" stroke="#3BCC50" stroke-width="1.5" stroke-linecap="round" stroke-linejoin="round"/>
<path d="M20.6601 17L17.8701 15.39" stroke="#3BCC50" stroke-width="1.5" stroke-linecap="round" stroke-linejoin="round"/>
<path d="M19.3398 19.29L21.9798 14.71" stroke="#3BCC50" stroke-width="1.5" stroke-linecap="round" stroke-linejoin="round"/>
<path d="M12.0002 18.78C15.7447 18.78 18.7802 15.7445 18.7802 12C18.7802 8.25548 15.7447 5.21997 12.0002 5.21997C8.25572 5.21997 5.22021 8.25548 5.22021 12C5.22021 15.7445 8.25572 18.78 12.0002 18.78Z" stroke="#3BCC50" stroke-width="1.5" stroke-linecap="round" stroke-linejoin="round"/>
</svg>
